<?xml version="1.0" encoding="utf-8"?>
<!-- Generator: Adobe Illustrator 21.1.0, SVG Export Plug-In . SVG Version: 6.00 Build 0)  -->
<svg version="1.1" id="Layer_1" xmlns="http://www.w3.org/2000/svg" xmlns:xlink="http://www.w3.org/1999/xlink" x="0px" y="0px"
	 viewBox="0 0 360 140" style="enable-background:new 0 0 360 140;" xml:space="preserve">
<style type="text/css">
	.st0{fill:none;stroke:#999999;stroke-linejoin:round;stroke-miterlimit:10;}
	.st1{fill:none;stroke:#999999;stroke-miterlimit:10;}
	.st2{fill:#999999;}
	.st3{fill:#ED1B24;}
</style>
<path class="st0" d="M360,35.2c-8-2.7-15.9-4.9-24.5-7.6l-6.7,6.8c-4-1.2-5.2-1-9.2-2.1l0.9-9.7c-11.8-3.4-22.5-6.3-34.6-8.8
	l-4.3,8.9c-4.1-0.8-5.1-0.6-9.2-1.3l-0.5-10c-12.1-2.2-21.8-3.8-34.1-5.1l-4.1,10c-4.1-0.5-6-0.8-9.6-1.1l-0.4-10.2
	c-12.3-1-24.7-1.5-37-1.6L184,13.4c-4.2,0-4.3,0.2-8.5,0.2l-3.1-10.3c-12.4,0.2-20.6,1-32.9,2.1l-1.5,10c-4.2,0.4-4.7,0.2-8.9,0.7
	l-3.9-9.5c-12.3,1.4-23.2,3.4-35.3,5.7l-1.5,8.5c-4.1,0.8-4,0.4-8,1.3l-4.5-7.2c-12,2.6-25.5,5.7-37.3,9.2L40,32
	c-1.4,0.5-5.5,0.9-9,2.7l-5.8-5.5c-8.8,2.9-16.7,5.3-25,8.3"/>
<path class="st1" d="M0,66c53.3-17.5,111.8-27.5,173.2-28.2C239.6,37,302.8,47.1,360,66"/>
<path class="st1" d="M0,128.9c53.1-17.6,113.2-27.8,176.9-28.4c66-0.6,128.3,9.1,183.1,26.9"/>
<path class="st1" d="M0,134.7c51.3-17.1,110.2-27.1,172.8-27.7c68.1-0.6,132.2,9.9,187.2,28.8"/>
<g>
	<path class="st2" d="M212.7,73.7c4.4,2.1,3.8,5.4,3.7,8.6c-2.2-0.1-4.2-0.3-6.2-0.4c-0.1-0.2-0.3-0.3-0.3-0.4
		c-0.1-5.4-0.1-5.5-7.3-5.8c-2-0.1-4-0.2-6.3-0.2c-0.1,2-0.1,3.8-0.2,5.8c-2.3-0.1-4.3-0.1-6.8-0.2c0.1-3.8,0.1-7.6,0.2-11.5
		c0.1-3.8,0.1-7.6,0.2-11.6c7.2,0.1,14.3,0.2,21.3,0.8c3.1,0.3,5,2,4.9,4.4c0,2.2-0.2,4.3-0.4,6.5C215.2,72.3,214,72.3,212.7,73.7z
		 M196.5,70.8c3.4,0.1,7.5,0.3,10.5,0.4c0.8,0,2.3-0.5,2.4-0.9c0.4-1.9,0.4-3.8,0.3-5.8c0-0.4-1.3-1-2.1-1.1
		c-3.2-0.3-7.6-0.4-10.9-0.5C196.6,65.6,196.5,68,196.5,70.8z"/>
	<path class="st2" d="M153.5,58.5c0.1,1.5,0.1,2.9,0.2,4.6c-3.6,0.2-7.3,0.4-11,0.6c-2.9,0.1-3.9,1.1-3.3,3.5c3-0.2,6.2-0.4,9.3-0.6
		c6-0.3,8.1,1.2,8.3,5.8c0.1,1.4,0.2,2.8,0.1,4.2c-0.1,3.2-2.1,4.9-6.2,5.2c-3.7,0.3-7.4,0.5-11.1,0.7c-4.2,0.2-6.5-1.4-6.8-4.7
		c-0.4-4.4-0.8-8.8-1.1-13.2c-0.2-2.7,1.7-4.8,5.1-5.1C142.6,59,148,58.8,153.5,58.5z M139.6,72c0.1,1.4,0.1,2.7,0.3,3.9
		c0.1,0.6,0.7,1.7,1.1,1.6c2.8,0,5.6,0,8.2-0.6c0.6-0.1,0.7-2.5,0.5-3.8c-0.1-0.6-1.3-1.5-2.1-1.6C145.1,71.5,142.5,71.8,139.6,72z"
		/>
	<path class="st2" d="M271,88.8c0.3-1.5,0.5-2.9,0.8-4.6c3.5,0.6,7.1,1.1,10.6,1.9c2.8,0.6,4-0.1,4-2.6c-3-0.6-6-1.1-9.1-1.7
		c-5.9-1-7.6-2.9-6.9-7.4c0.2-1.4,0.4-2.8,0.7-4.1c0.7-3.1,3.1-4.4,7.4-3.8c3.8,0.5,7.6,1.2,11.4,2.1c4.3,1,6.2,3.2,5.6,6.4
		c-0.8,4.3-1.7,8.7-2.7,13c-0.6,2.7-2.9,4.1-6.2,3.6C281.4,90.8,276.3,89.7,271,88.8z M287.4,78.9c0.3-1.4,0.6-2.6,0.7-3.8
		c0-0.6-0.3-1.8-0.7-1.9c-2.7-0.7-5.6-1.4-8.3-1.4c-0.6,0-1.3,2.3-1.4,3.6c-0.1,0.6,1,1.8,1.8,2C281.9,78,284.6,78.4,287.4,78.9z"/>
	<path class="st2" d="M56.1,82.8c-0.4-2-0.9-4.1-1.3-6.1c-0.6-3.1,1.1-5.3,5.2-6.4c3.9-1,8-1.8,12-2.4c3.7-0.6,5.9,0.3,6.6,2.9
		c1.2,4.8,2.1,9.7,2.6,14.6c0.3,2.8-1.5,4.4-5.1,5.2c-3.7,0.8-7.5,1.6-11.2,2.2c-4.2,0.7-6.6-0.6-7.4-3.8c0-0.2-0.1-0.3-0.1-0.5
		C57,86.7,56.6,84.8,56.1,82.8C56.1,82.8,56.1,82.8,56.1,82.8z M73.1,79.7c-0.3-1.6-0.5-3.2-1-4.8c-0.2-0.7-1.2-1.7-1.8-1.7
		c-2.4,0.3-4.9,0.8-7.2,1.5c-0.5,0.2-1.2,1.3-1.1,1.8c0.6,3.3,1.2,6.6,2.1,9.8c0.2,0.7,1.9,1.4,3,1.4c1.5,0,3.3-0.3,4.7-0.9
		c1-0.4,1.9-1.6,2-2.5C74,82.7,73.4,81.2,73.1,79.7z"/>
	<path class="st2" d="M161.2,69.7c-0.1-2.1-0.2-4.2-0.2-6.3c0-3.2,2-5.1,6.2-5.3c4-0.2,8.1-0.3,12.2-0.1c3.7,0.1,5.8,1.4,5.9,4.1
		c0.3,4.9,0.3,9.9-0.1,14.8c-0.2,2.8-2.2,4.1-5.9,4.2c-3.8,0.1-7.6,0.2-11.4,0.1c-4.2-0.1-6.3-1.8-6.5-5.1
		C161.3,74,161.3,71.9,161.2,69.7z M178.3,64.8c-0.1-0.7,0-1.8-1.5-2c-2.4-0.2-4.9-0.1-7.3,0.2c-0.6,0.1-1.4,1-1.4,1.6
		c0,3.3,0,6.7,0.3,10c0.1,0.7,1.6,1.7,2.7,1.9c1.5,0.3,3.3,0.3,4.8-0.1c1-0.2,2.2-1.3,2.4-2.1C178.7,72.9,178.6,66.5,178.3,64.8z"/>
	<path class="st2" d="M103,67.7c-4.5,0.6-8.7,1.2-13.1,1.9c0.2,1.2,0.4,2.3,0.5,3.5c2.9-0.4,5.7-0.9,8.5-1.3c4.4-0.6,6,0.3,6.7,3.5
		c0.4,2,0.7,4.1,0.8,6.2c0.1,2.8-1,4.3-4.5,4.9c-5.9,1-9.8,1.5-15.8,2.5c-0.3-1.5-0.5-2.9-0.8-4.6c4.3-0.7,6.4-1,10.7-1.7
		c1.2-0.2,3.1-0.8,3.2-1.3c0.3-1.3-0.1-2.8-0.6-4.1c-0.1-0.3-1.6-0.4-2.4-0.3c-3.9,0.5-7.8,1.2-11.9,1.8c-0.7-4.3-1.4-8.4-2.1-12.7
		c6.6-1.1,13.3-2.1,20.2-3C102.6,64.5,102.8,65.9,103,67.7z"/>
	<path class="st2" d="M233.2,73.5c0-1,0-1.6,0.1-2.3c0.3-3.5,0.6-6.9,1-10.5c6.9,0.6,13.6,1.4,20.5,2.3c-0.2,1.4-0.4,2.8-0.6,4.4
		c-4.3-0.6-8.6-1.1-13.1-1.5c-0.1,1.3-0.3,2.4-0.4,3.6c2.8,0.3,5.5,0.6,8.2,0.9c4.6,0.6,6,1.8,5.8,5.2c-0.1,2-0.3,4-0.8,6
		c-0.7,3-2.4,4.1-6.4,3.7c-5.7-0.5-9.2-1-15.2-1.6c0.1-1.5,0.3-2.9,0.4-4.7c4.4,0.4,6.7,0.5,11,1.2c3.2,0.5,3.4-0.7,3.7-2.6
		c0.3-2-0.3-2.8-3.1-3C240.8,74.4,237.1,73.9,233.2,73.5z"/>
	<path class="st2" d="M37,93.5c5.3-1.4,10.6-2.7,16.2-3.9c0.3,1.5,0.9,4,1.3,5.6c-7.6,1.7-15.3,3.6-23.1,5.8
		c-0.5-1.7-1.1-3.3-1.3-4.9c-0.4-2.5,0.8-4.7,3.6-6.4c2.9-1.8,5.6-3.7,8.6-5.3c2.5-1.4,2.3-3.1,1.3-4.3c-0.4-0.5-2.4-0.4-3.6-0.2
		c-3.8,0.7-7.6,1.8-11.6,3c-0.4-1.5-0.8-2.9-1.2-4.5c6-1.6,12-3.2,18-4.4c1.3-0.3,3.4,0.2,4.2,1c4.1,4,2.5,9.6-3.2,13.1
		c-2.5,1.5-5.1,3.1-7.5,4.7c-0.7,0.5-1.2,0.4-1.8,1C37,93.5,36.8,93.3,37,93.5z"/>
	<path class="st2" d="M219.7,59.4c3.3,0.2,6.5,0.5,9.9,0.8c-0.6,7.6-1.3,15.2-2,22.9c-2-0.2-4-0.3-6.3-0.5
		c0.6-6.2,1.3-13.1,1.7-18.5c-1.2-0.3-2.5-0.1-3.6-0.3C219.5,62.4,219.6,61,219.7,59.4z"/>
	<path class="st2" d="M299.3,70.4c3.3,0.7,6.4,1.4,9.8,2.1c-1.7,7.4-3.4,14.8-5.1,22.4c-1.9-0.4-3.9-0.9-6.2-1.4
		c1.4-6,3.1-12.8,4.2-18.1c-1.1-0.4-2.4-0.4-3.6-0.8C298.7,73.3,299,71.9,299.3,70.4z"/>
	<path class="st2" d="M130.2,60c-5,8.3-9.7,16.5-14.2,24.8c-2.5,0.3-4.8,0.6-7.7,0.9c3.1-6.2,14.2-25.2,14.3-25.2
		C125.1,60.4,127.6,60.2,130.2,60z"/>
	<g>
		<path class="st2" d="M315.3,97.7c-1.1-8.2-2.3-16.3-3.6-24.5c2,0.5,4,0.9,6,1.4c0.7,5,1.3,10,1.8,15c1.6-2.4,9.2-12.2,9.2-12.2
			c2,0.5,4,1.1,6,1.6c-5.3,6.5-10.5,13-15.6,19.6C317.9,98.3,316.6,98,315.3,97.7z"/>
	</g>
</g>
</svg>
