<svg xmlns="http://www.w3.org/2000/svg" width="199.62" height="50" viewBox="0 0 199.62 50">
  <title>Asset 1</title>
  <g>
    <g>
      <path d="M4.61,37.65l.07.09Z" fill="#231f20"/>
      <path d="M4.61,37.65l.07.09Z" fill="#231f20"/>
      <path d="M13.17,14.23s0-.05,0-.06a0,0,0,0,0-.07,0h0A19.62,19.62,0,0,0,8,24.42,21,21,0,0,0,21.67,48.05l.5.16a1.37,1.37,0,0,1,1,1.44l0,.13a24.24,24.24,0,0,0,6.48,0,1.56,1.56,0,0,1,0-.53v0a1.43,1.43,0,0,1,2.75,0,24.11,24.11,0,0,0,5.14-2c.51-.28,1-.57,1.51-.88a1.43,1.43,0,0,1,2.3-1.63,24.1,24.1,0,0,0,4-4.16A1.44,1.44,0,0,1,45,39a1.43,1.43,0,0,1,1-.92,1.36,1.36,0,0,1,1,.1c.28-.48.54-1,.79-1.47a23.33,23.33,0,0,0,1.93-5.4,1.14,1.14,0,0,1-.36-.15,1.45,1.45,0,0,1-.41-2,1.42,1.42,0,0,1,1.22-.64A24.52,24.52,0,0,0,50,22.89a1.41,1.41,0,0,1-.46,0,1.44,1.44,0,0,1-1.08-1.29h0v.16a.53.53,0,0,0,0-.12,21.23,21.23,0,0,1-1,6.72A20,20,0,0,1,37.43,40.25,21,21,0,0,1,23.72,42.4l-.45-.09A17.33,17.33,0,0,1,13,36.11l0,0a17.55,17.55,0,0,1,.21-21.82Z" fill="#231f20"/>
      <path d="M41.6,26.4a0,0,0,0,0,0,0,0,0,0,0,0,0,0,19.57,19.57,0,0,0-2.26-11.24A21,21,0,0,0,14.12,4.92l-.5.18A1.35,1.35,0,0,1,12,4.57l-.06-.11a23.78,23.78,0,0,0-5.11,4,1.22,1.22,0,0,1,.31.43v0a1.44,1.44,0,0,1-.83,1.85,1.46,1.46,0,0,1-1,0,1.49,1.49,0,0,1-.3-.18,24.45,24.45,0,0,0-2.83,4.74c-.24.53-.46,1.08-.66,1.62a1.42,1.42,0,0,1,.64,1.92,1.43,1.43,0,0,1-1.45.79A24.23,24.23,0,0,0,0,25.41a1.43,1.43,0,0,1,1.27.95A1.44,1.44,0,0,1,1,27.72a1.35,1.35,0,0,1-.83.51q.11.82.27,1.65a23.63,23.63,0,0,0,1.8,5.44,1.35,1.35,0,0,1,.36-.08,1.42,1.42,0,0,1,1.54,1.31,1.36,1.36,0,0,1-.16.79,1.31,1.31,0,0,1-.4.47,23.71,23.71,0,0,0,3.56,4.42A1.67,1.67,0,0,1,7.55,42a1.44,1.44,0,0,1,1.65.36v0l-.11-.13.11.08a21.23,21.23,0,0,1-3.35-5.89,19.88,19.88,0,0,1,.62-15.59A21,21,0,0,1,16,10.65l.41-.21A17.5,17.5,0,0,1,28.31,9h.05A17.57,17.57,0,0,1,41.6,26.4Z" fill="#231f20"/>
      <path d="M19.17,40.31a0,0,0,0,0,0,.09,19.55,19.55,0,0,0,11.38,1.38A21,21,0,0,0,48.16,21v-.53a1.37,1.37,0,0,1,1-1.39l.13,0a23.9,23.9,0,0,0-2.19-6.1,1.45,1.45,0,0,1-.5.15h0a1.43,1.43,0,0,1-1.51-1.35,1.44,1.44,0,0,1,.6-1.25,24.13,24.13,0,0,0-3.58-4.17c-.43-.39-.87-.77-1.33-1.13a1.44,1.44,0,0,1-2.32-1.62,24.15,24.15,0,0,0-5.27-2.41A1.43,1.43,0,0,1,31.85,2a1.45,1.45,0,0,1-1.21-.66,1.3,1.3,0,0,1-.22-.94C29.84.32,29.3.24,28.74.17A23.88,23.88,0,0,0,23,.17a1.58,1.58,0,0,1,0,.38,1.44,1.44,0,0,1-1.24,1.11,1.41,1.41,0,0,1-1.19-.45,1.51,1.51,0,0,1-.32-.53,23.93,23.93,0,0,0-5.31,2,1.69,1.69,0,0,1,.12.44,1.44,1.44,0,0,1-.85,1.46h0l.14-.05-.1.07a21.33,21.33,0,0,1,6.65-1.34A19.92,19.92,0,0,1,35.5,8.73a21,21,0,0,1,6.64,12.19l.06.46a17.4,17.4,0,0,1-2.39,11.75l0,0a17.54,17.54,0,0,1-20.62,7.13Z" fill="#231f20"/>
    </g>
    <g>
      <path d="M85.15,20.88h-6V34.45H73.34V20.88h-6V16.22h17.8Z" fill="#231f20"/>
      <path d="M89.78,34.35A6.58,6.58,0,0,1,87.3,33a5.64,5.64,0,0,1-1.53-2.28,9.27,9.27,0,0,1-.53-3.27v-.9h10.5a3.48,3.48,0,0,0-.65-2.25,2.68,2.68,0,0,0-2.15-.79,4.1,4.1,0,0,0-1.21.15,2.2,2.2,0,0,0-.79.44,1.57,1.57,0,0,0-.44.64,2.45,2.45,0,0,0-.14.8H85.24a5.19,5.19,0,0,1,.48-2.26,4.44,4.44,0,0,1,1.43-1.7,7,7,0,0,1,2.37-1.07,14.51,14.51,0,0,1,6.72.07,6.64,6.64,0,0,1,2.58,1.34,5.88,5.88,0,0,1,1.63,2.28,8.67,8.67,0,0,1,.57,3.27,8.49,8.49,0,0,1-.56,3.23A6,6,0,0,1,98.88,33a6.61,6.61,0,0,1-2.49,1.37,11,11,0,0,1-3.23.45A12.09,12.09,0,0,1,89.78,34.35Zm5.14-3.59A2.78,2.78,0,0,0,95.71,29H90.56a2.12,2.12,0,0,0,2.37,2.35,2.69,2.69,0,0,0,2-.61Z" fill="#231f20"/>
      <path d="M108.11,25.81l4.48-5.34h6.15l-5.17,5.64,5.3,8.34h-6L110,29.65l-1.84,1.79v3h-5.27V15.21h5.27Z" fill="#231f20"/>
      <path d="M123.87,34.35A6.58,6.58,0,0,1,121.39,33a5.75,5.75,0,0,1-1.53-2.28,9.08,9.08,0,0,1-.52-3.27v-.9h10.49a3.48,3.48,0,0,0-.65-2.25,2.68,2.68,0,0,0-2.15-.79,4.1,4.1,0,0,0-1.21.15,2.2,2.2,0,0,0-.79.44,1.57,1.57,0,0,0-.44.64,2.45,2.45,0,0,0-.14.8h-5.11a5.18,5.18,0,0,1,.47-2.26,4.53,4.53,0,0,1,1.43-1.7,7,7,0,0,1,2.37-1.07,14.51,14.51,0,0,1,6.72.07,6.71,6.71,0,0,1,2.58,1.34,5.88,5.88,0,0,1,1.63,2.28,8.48,8.48,0,0,1,.57,3.27,8.49,8.49,0,0,1-.56,3.23A6,6,0,0,1,133,33a6.76,6.76,0,0,1-2.49,1.37,10.94,10.94,0,0,1-3.22.45A12.11,12.11,0,0,1,123.87,34.35ZM129,30.76A2.86,2.86,0,0,0,129.8,29h-5.15a2.16,2.16,0,0,0,1.93,2.36,3.23,3.23,0,0,0,.44,0,2.78,2.78,0,0,0,2-.62Z" fill="#231f20"/>
      <path d="M146.45,20.17a2.68,2.68,0,0,1,.49.11,2,2,0,0,1,.43.16v4.42h-1.69a4.14,4.14,0,0,0-1.44.23,2.37,2.37,0,0,0-1,.66,2.55,2.55,0,0,0-.53,1.08,5.32,5.32,0,0,0-.16,1.43v6.19h-5.3v-14h4.32l.34,2.11a3.62,3.62,0,0,1,.65-1.08,3.71,3.71,0,0,1,.9-.77,4,4,0,0,1,1.07-.45,5,5,0,0,1,1.21-.15A3,3,0,0,1,146.45,20.17Z" fill="#231f20"/>
      <path d="M154.87,18.82h-5.28V15.23h5.28Zm0,15.63h-5.28v-14h5.28Z" fill="#231f20"/>
      <path d="M173.06,34.45h-4.3l-.34-2.12a5.16,5.16,0,0,1-1,1,5.77,5.77,0,0,1-1.19.77,6.79,6.79,0,0,1-1.37.49,6.54,6.54,0,0,1-1.46.17,6.07,6.07,0,0,1-2.15-.36,4,4,0,0,1-1.52-1,4.37,4.37,0,0,1-.9-1.65,7.58,7.58,0,0,1-.3-2.22v-9h5.27v8.42a2.24,2.24,0,0,0,.45,1.43,1.62,1.62,0,0,0,1.34.56,2.33,2.33,0,0,0,.9-.18,2.08,2.08,0,0,0,1.14-1.17,2.24,2.24,0,0,0,.15-.85V20.47h5.27Z" fill="#231f20"/>
      <path d="M197,20.5a3.8,3.8,0,0,1,1.49,1,4.32,4.32,0,0,1,.88,1.65,7.92,7.92,0,0,1,.29,2.22v9.07h-5.27V26a2.28,2.28,0,0,0-.43-1.43,1.45,1.45,0,0,0-1.23-.58,2.15,2.15,0,0,0-.87.18,1.94,1.94,0,0,0-.66.47,2.1,2.1,0,0,0-.42.72,2.44,2.44,0,0,0-.15.84v8.22h-5.28V26a2.28,2.28,0,0,0-.43-1.43,1.47,1.47,0,0,0-1.24-.58,2.15,2.15,0,0,0-.87.18,2,2,0,0,0-.66.47,2.61,2.61,0,0,0-.42.72,2.44,2.44,0,0,0-.15.84v8.22h-5.27v-14h4.33l.34,2.08a5.19,5.19,0,0,1,.93-1,6,6,0,0,1,1.17-.76,7.14,7.14,0,0,1,1.34-.48,6.36,6.36,0,0,1,1.44-.16,5.07,5.07,0,0,1,2.67.63,3.8,3.8,0,0,1,1.57,1.79,5.89,5.89,0,0,1,.94-1,6,6,0,0,1,1.15-.79,6.86,6.86,0,0,1,1.31-.48,6.14,6.14,0,0,1,3.5.18Z" fill="#231f20"/>
    </g>
  </g>
</svg>
